gui_paths_subject3_walking1_full_v3
version=1
nRows=18
nColumns=56
inDegrees=no
endheader
time	pelvis_tilt	pelvis_list	pelvis_rotation	pelvis_tx	pelvis_ty	pelvis_tz	hip_flexion_r	hip_adduction_r	hip_rotation_r	knee_angle_r	ankle_angle_r	subtalar_angle_r	mtp_angle_r	hip_flexion_l	hip_adduction_l	hip_rotation_l	knee_angle_l	ankle_angle_l	subtalar_angle_l	mtp_angle_l	lumbar_extension	lumbar_bending	lumbar_rotation	arm_flex_r	arm_add_r	arm_rot_r	elbow_flex_r	pro_sup_r	wrist_flex_r	wrist_dev_r	arm_flex_l	arm_add_l	arm_rot_l	elbow_flex_l	pro_sup_l	wrist_flex_l	wrist_dev_l	knee_angle_r_beta	knee_angle_l_beta	/forceset/M0_r/activation	/forceset/M1_r/activation	/forceset/M2_r/activation	/forceset/M3_r/activation	/forceset/M4_r/activation	/forceset/M5_r/activation	/forceset/M6_r/activation	/forceset/M7_r/activation	/forceset/M0_l/activation	/forceset/M1_l/activation	/forceset/M2_l/activation	/forceset/M3_l/activation	/forceset/M4_l/activation	/forceset/M5_l/activation	/forceset/M6_l/activation	/forceset/M7_l/activation
0.65000000	0.12560052	0.22844877	-0.12801359	0.72442757	0.88659790	-0.24362474	-0.49185018	-0.29212366	-0.34142158	0.42738334	0.06923851	0.01861229	-0.00040485	0.27432475	0.26092174	-0.19560646	0.22822364	-0.06714152	0.02034670	-0.00088755	-0.16312215	-0.25708791	0.17401394	-0.00820572	-0.20197271	-0.13699418	0.87418865	1.39718810	-0.00009351	0.00046255	-0.29496322	-0.16658419	-0.25668336	0.34955900	1.48135580	-0.00013359	0.00030875	0.42738334	0.22822364	0.13786253	1.00000000	0.72493762	0.00000000	0.00000000	0.00000000	0.40265900	0.14114665	0.21153054	0.00000000	0.00000000	0.16155677	0.00000000	0.50999609	0.07963625	1.00000000
0.66000000	0.12504535	0.24320265	-0.12269320	0.73910901	0.88786355	-0.24443821	-0.47162393	-0.31712100	-0.34391150	0.48740073	0.01872493	0.01861229	-0.00040485	0.27000317	0.27925880	-0.19038594	0.24934574	-0.05341996	0.02034670	-0.00088755	-0.15920547	-0.27238527	0.16170051	-0.02049652	-0.19241896	-0.13486279	0.85166781	1.39656924	-0.00009351	0.00046255	-0.28906481	-0.16772910	-0.26530492	0.35636037	1.48152307	-0.00013359	0.00030875	0.48740073	0.24934574	0.12005365	1.00000000	0.58055143	0.00000000	0.00000000	0.00000000	0.34862342	0.20884043	0.22174843	0.00000000	0.00000000	0.19891775	0.00000000	0.42241547	0.08035813	1.00000000
0.67000000	0.12156990	0.25527966	-0.11682035	0.75359472	0.88916758	-0.24530924	-0.44276593	-0.33978820	-0.33774029	0.55395517	-0.03715124	0.01861229	-0.00040485	0.26583483	0.29521218	-0.18275047	0.26595270	-0.03858057	0.02034670	-0.00088755	-0.15243744	-0.28414715	0.14902874	-0.03286748	-0.18419128	-0.12996120	0.82770630	1.39534016	-0.00009351	0.00046255	-0.28315202	-0.16789495	-0.27432858	0.36504826	1.48153121	-0.00013359	0.00030875	0.55395517	0.26595270	0.05327715	1.00000000	0.31335262	0.00000000	0.00000000	0.00000000	0.36528318	0.49769703	0.23735159	0.00000000	0.00000000	0.23471944	0.00000000	0.34305979	0.08275952	1.00000000
0.68000000	0.11521034	0.26479367	-0.11136753	0.76782818	0.89044677	-0.24615456	-0.40495375	-0.36002551	-0.32246175	0.62568761	-0.09656960	0.01861229	-0.00040485	0.26163948	0.30865796	-0.17444787	0.27684438	-0.02436439	0.02034670	-0.00088755	-0.14266322	-0.29262590	0.13733723	-0.04532748	-0.17756489	-0.12249374	0.80304237	1.39327507	-0.00009351	0.00046255	-0.27701416	-0.16733259	-0.28199432	0.37516276	1.48151935	-0.00013359	0.00030875	0.62568761	0.27684438	0.00000000	1.00000000	0.04359839	0.00000000	0.00000000	0.00000000	0.40572763	0.86811722	0.25772200	0.00000000	0.00000000	0.26788659	0.00000000	0.27072059	0.08729040	1.00000000
0.69000000	0.10688487	0.27211279	-0.10719598	0.78177300	0.89169432	-0.24689008	-0.35967336	-0.37778310	-0.29922271	0.70022445	-0.15644150	0.01861229	-0.00040485	0.25661544	0.31976959	-0.16689442	0.28167644	-0.01145590	0.02034670	-0.00088755	-0.13077614	-0.29841606	0.12740181	-0.05779515	-0.17262536	-0.11280791	0.77852679	1.39042018	-0.00009351	0.00046255	-0.27041493	-0.16638556	-0.28689581	0.38635409	1.48152448	-0.00013359	0.00030875	0.70022445	0.28167644	0.00000000	0.77071574	0.00000000	0.00000000	0.00000000	0.00000000	0.34048331	0.86379705	0.28181262	0.00000000	0.00000000	0.29756955	0.00000000	0.20413673	0.09432754	1.00000000
0.70000000	0.09782054	0.27771264	-0.10485451	0.79541360	0.89293138	-0.24744556	-0.30931364	-0.39300239	-0.27012125	0.77494848	-0.21228733	0.01861229	-0.00040485	0.24990767	0.32889276	-0.16090028	0.28091946	0.00011392	0.02034670	-0.00088755	-0.11808609	-0.30222776	0.11921929	-0.06998109	-0.16936663	-0.10074859	0.75466874	1.38719949	-0.00009351	0.00046255	-0.26331807	-0.16531543	-0.28888404	0.39866656	1.48153064	-0.00013359	0.00030875	0.77494848	0.28091946	0.00748798	0.50358159	0.00000000	0.00000000	0.00000000	0.00000000	0.26587050	0.76729977	0.30826490	0.00000000	0.00000000	0.32316538	0.00000000	0.14278225	0.10403070	1.00000000
0.71000000	0.08786357	0.28213490	-0.10456500	0.80872472	0.89408671	-0.24776117	-0.25424242	-0.40572915	-0.23647970	0.84841942	-0.25882695	0.01861229	-0.00040485	0.24268283	0.33622388	-0.15730966	0.27602701	0.01070165	0.02034670	-0.00088755	-0.10430874	-0.30476139	0.11223254	-0.08116815	-0.16794198	-0.08407781	0.73086528	1.38374971	-0.00009351	0.00046255	-0.25625816	-0.16418272	-0.28935879	0.41254237	1.48152778	-0.00013359	0.00030875	0.84841942	0.27602701	0.04360688	0.46264155	0.00000000	0.00000000	0.00000000	0.00000000	0.23884214	0.80335115	0.33537890	0.00000000	0.00000000	0.34422952	0.00000000	0.08733279	0.11632142	1.00000000
0.72000000	0.07655678	0.28583676	-0.10607927	0.82168229	0.89508846	-0.24781412	-0.19449274	-0.41604784	-0.19969424	0.91984465	-0.29083281	0.01861229	-0.00040485	0.23645714	0.34196483	-0.15637527	0.26874884	0.02070915	0.02034670	-0.00088755	-0.08894349	-0.30658981	0.10533441	-0.09054091	-0.16847051	-0.06005048	0.70629004	1.37947530	-0.00009351	0.00046255	-0.24989934	-0.16299881	-0.29021449	0.42855387	1.48152027	-0.00013359	0.00030875	0.91984465	0.26874884	0.02195232	0.22487596	0.00000000	0.00000000	0.00000000	0.00000000	0.18545013	0.63816424	0.36111375	0.00000000	0.00000000	0.36038333	0.00000000	0.03963065	0.13094443	1.00000000
0.73000000	0.06569035	0.28870693	-0.10870473	0.83428754	0.89606406	-0.24764253	-0.13369946	-0.42361763	-0.16262195	0.98736868	-0.30466481	0.01861229	-0.00040485	0.22944748	0.34637063	-0.15658705	0.26002797	0.03033259	0.02034670	-0.00088755	-0.07443990	-0.30772575	0.09736453	-0.09807886	-0.17059319	-0.02957936	0.68177069	1.37398956	-0.00009351	0.00046255	-0.24386953	-0.16208190	-0.29136989	0.44661154	1.48155961	-0.00013359	0.00030875	0.98736868	0.26002797	0.16604319	0.62704643	0.00000000	0.00000000	0.00000000	0.00000000	0.21017350	0.87797440	0.38327834	0.00000000	0.00000000	0.37130069	0.00000000	0.00224542	0.14754470	1.00000000
0.74000000	0.05760806	0.29032460	-0.11165639	0.84655414	0.89718811	-0.24731522	-0.07632803	-0.42803372	-0.12808397	1.04894038	-0.29984437	0.01861229	-0.00040485	0.21882326	0.34958760	-0.15591517	0.25026641	0.03961362	0.02034670	-0.00088755	-0.06398319	-0.30784430	0.08769340	-0.10442443	-0.17364040	0.00386980	0.65886663	1.36811574	-0.00009351	0.00046255	-0.23718530	-0.16195020	-0.29119274	0.46595525	1.48154125	-0.00013359	0.00030875	1.04894038	0.25026641	0.14657729	0.45429075	0.00000000	0.00000000	0.00000000	0.00000000	0.17279537	0.71054455	0.41319718	0.00000000	0.01400702	0.37965530	0.00000000	0.00000000	0.16120506	1.00000000
0.75000000	0.05228328	0.29052048	-0.11413594	0.85850079	0.89847187	-0.24689686	-0.02322699	-0.42932073	-0.09728488	1.10383722	-0.27892951	0.01861229	-0.00040485	0.20471924	0.35159242	-0.15331970	0.24019241	0.04861212	0.02034670	-0.00088755	-0.05781344	-0.30677514	0.07589765	-0.11000652	-0.17709777	0.03834408	0.63791911	1.36309873	-0.00009351	0.00046255	-0.22957102	-0.16286804	-0.28928205	0.48603759	1.48104226	-0.00013359	0.00030875	1.10383722	0.24019241	0.13916730	0.59874729	0.00000000	0.00000000	0.00000000	0.00000000	0.17869676	0.72767863	0.43302027	0.00000000	0.02459407	0.38237535	0.00000000	0.00000000	0.17719481	1.00000000
0.76000000	0.04831423	0.28929474	-0.11534812	0.87015489	0.89983594	-0.24644620	0.02681088	-0.42767858	-0.07054495	1.15196632	-0.24632503	0.01861229	-0.00040485	0.18895978	0.35228316	-0.14834825	0.23062661	0.05741741	0.02034670	-0.00088755	-0.05443989	-0.30442978	0.06152846	-0.11502616	-0.18061361	0.07302088	0.61854022	1.35959115	-0.00009351	0.00046255	-0.22132488	-0.16481520	-0.28652872	0.50663598	1.47977132	-0.00013359	0.00030875	1.15196632	0.23062661	0.11570831	0.58981712	0.00000000	0.00000000	0.00000000	0.00000000	0.16123364	0.63473547	0.42957398	0.00000000	0.01810791	0.37613246	0.00000000	0.00000000	0.19952216	1.00000000
0.77000000	0.04483056	0.28661618	-0.11485169	0.88155287	0.90123234	-0.24600732	0.07441114	-0.42326855	-0.04795819	1.19299015	-0.20714768	0.01861229	-0.00040485	0.17258901	0.35157586	-0.14076082	0.22189378	0.06606958	0.02034670	-0.00088755	-0.05288376	-0.30065719	0.04457335	-0.11986772	-0.18386750	0.10620681	0.60068336	1.35793351	-0.00009351	0.00046255	-0.21258404	-0.16772413	-0.28345266	0.52741803	1.47785556	-0.00013359	0.00030875	1.19299015	0.22189378	0.09229342	0.56624565	0.00000013	0.00000000	0.00000000	0.00000000	0.14227649	0.54136515	0.40936857	0.00000000	0.00000000	0.36336279	0.00000000	0.00000000	0.22603062	1.00000000
0.78000000	0.04146115	0.28251749	-0.11274631	0.89273639	0.90263501	-0.24559555	0.11985871	-0.41633402	-0.02914600	1.22661415	-0.16595788	0.01861229	-0.00040485	0.15600441	0.34946179	-0.13081900	0.21387063	0.07455131	0.02034670	-0.00088755	-0.05256362	-0.29537662	0.02559944	-0.12500729	-0.18665562	0.13580332	0.58448743	1.35839655	-0.00009351	0.00046255	-0.20336911	-0.17149816	-0.28015771	0.54809186	1.47547872	-0.00013359	0.00030875	1.22661415	0.21387063	0.09646098	0.21800069	0.21540036	0.00000024	0.00000085	0.04998134	0.00000034	0.06042932	0.40207194	0.00000000	0.00000000	0.35278531	0.00000000	0.01815207	0.24701027	1.00000000
0.79000000	0.03796516	0.27714511	-0.10951642	0.90374634	0.90401158	-0.24519959	0.16357531	-0.40720183	-0.01328423	1.25284318	-0.12576106	0.01861229	-0.00040485	0.13947815	0.34601406	-0.11925020	0.20623376	0.08283254	0.02034670	-0.00088755	-0.05289231	-0.28865429	0.00545853	-0.13078641	-0.18895912	0.16026895	0.56998878	1.36080391	-0.00009351	0.00046255	-0.19381293	-0.17595529	-0.27695931	0.56869737	1.47283060	-0.00013359	0.00030875	1.25284318	0.20623376	0.08654872	0.20374085	0.18833700	0.00000062	0.00000510	0.07588406	0.00000064	0.06709393	0.39223605	0.00000000	0.00000000	0.34043879	0.00000000	0.05170660	0.26826425	1.00000000
0.80000000	0.03435407	0.27064231	-0.10583584	0.91461893	0.90533930	-0.24479297	0.20578890	-0.39613070	0.00055945	1.27184133	-0.08788039	0.01861229	-0.00040485	0.12300148	0.34131344	-0.10694781	0.19858710	0.09091861	0.02034670	-0.00088755	-0.05353304	-0.28059007	-0.01490481	-0.13738458	-0.19090689	0.17866886	0.55721532	1.36427051	-0.00009351	0.00046255	-0.18406709	-0.18085510	-0.27432838	0.58951707	1.47033440	-0.00013359	0.00030875	1.27184133	0.19858710	0.06979384	0.17102065	0.15101248	0.00000033	0.00000217	0.06801712	0.00000039	0.05478962	0.38185723	0.00000000	0.00000000	0.32808408	0.00000000	0.08650012	0.28982152	1.00000000
0.81000000	0.03090448	0.26309305	-0.10239335	0.92538527	0.90661302	-0.24434348	0.24636439	-0.38325062	0.01318239	1.28380812	-0.05244877	0.01861229	-0.00040485	0.10626912	0.33539935	-0.09475367	0.19058865	0.09886267	0.02034670	-0.00088755	-0.05449532	-0.27125648	-0.03453702	-0.14488256	-0.19267308	0.19050699	0.54623098	1.36734640	-0.00009351	0.00046255	-0.17417793	-0.18597759	-0.27259139	0.61084494	1.46857328	-0.00013359	0.00030875	1.28380812	0.19058865	0.05358448	0.13345456	0.11293461	0.00000096	0.00000442	0.04170098	0.00000125	0.03479901	0.38532863	0.00000000	0.00000000	0.33614635	0.00000000	0.00000000	0.26935146	0.85109182
0.82000000	0.02786656	0.25463569	-0.09970297	0.93607795	0.90782819	-0.24381091	0.28506917	-0.36865196	0.02516154	1.28896954	-0.01906344	0.01861229	-0.00040485	0.08904253	0.32833665	-0.08333604	0.18209943	0.10674985	0.02034670	-0.00088755	-0.05579489	-0.26085089	-0.05268052	-0.15326062	-0.19434021	0.19599413	0.53688536	1.36861704	-0.00009351	0.00046255	-0.16420051	-0.19121474	-0.27199184	0.63290723	1.46802267	-0.00013359	0.00030875	1.28896954	0.18209943	0.04272436	0.10034937	0.08110219	0.00000046	0.00000109	0.01150571	0.00000117	0.01586184	0.37982412	0.00000000	0.00000000	0.33121833	0.00000000	0.00000000	0.28002607	0.81135922
